<svg version="1.2" baseProfile="tiny-ps" xmlns="http://www.w3.org/2000/svg" viewBox="0 0 200 95" width="200" height="95">
	<title>icono_variant-svg</title>
	<style>
		tspan { white-space:pre }
		.shp0 { fill: #ffffff;stroke: #000000;stroke-width: 7 } 
	</style>
	<g id="Layer">
		<path id="svg_1" class="shp0" d="M0 45C0 20.15 20.15 0 45 0L155 0C179.85 0 200 20.15 200 45L200 50C200 74.85 179.85 95 155 95L45 95C20.15 95 0 74.85 0 50L0 45Z" />
		<path id="&lt;&lt;Def&gt;&gt; + " fill="#000000" aria-label="&lt;&lt;VP&gt;&gt;
+"  d="M42.43 26.66L42.43 29.57L24.69 36.05L42.43 42.49L42.43 45.39L20.52 37.45L20.52 34.61L42.43 26.66ZM71.76 26.66L71.76 29.57L54.02 36.05L71.76 42.49L71.76 45.39L49.85 37.45L49.85 34.61L71.76 26.66ZM84.42 23.31L81.58 23.31L89.12 42.9L96.64 23.31L93.77 23.31L93.77 21.48L101.25 21.48L101.25 23.31L98.77 23.31L89.67 47L86.73 47L77.67 23.31L75.12 23.31L75.12 21.48L84.42 21.48L84.42 23.31ZM109.39 23.31L109.39 34.01L113.9 34.01Q116.45 34.01 117.78 32.64Q119.11 31.26 119.11 28.66Q119.11 26.05 117.78 24.68Q116.45 23.31 113.9 23.31L109.39 23.31ZM113.33 47L102.67 47L102.67 45.19L105.92 45.19L105.92 23.31L102.67 23.31L102.67 21.48L114.74 21.48Q118.56 21.48 120.8 23.43Q123.04 25.36 123.04 28.66Q123.04 31.94 120.8 33.89Q118.56 35.84 114.74 35.84L109.39 35.84L109.39 45.19L113.33 45.19L113.33 47ZM145.74 36.05L128 29.57L128 26.66L149.91 34.61L149.91 37.45L128 45.39L128 42.49L145.74 36.05ZM175.06 36.05L157.32 29.57L157.32 26.66L179.23 34.61L179.23 37.45L157.32 45.39L157.32 42.49L175.06 36.05ZM98.65 56.06L101.39 56.06L101.39 65.64L110.98 65.64L110.98 68.41L101.39 68.41L101.39 78L98.65 78L98.65 68.41L89.07 68.41L89.07 65.64L98.65 65.64L98.65 56.06Z" />
	</g>
</svg>