<svg version="1.2" baseProfile="tiny-ps" xmlns="http://www.w3.org/2000/svg" viewBox="0 0 200 95" width="200" height="95">
	<title>icono_variant-svg</title>
	<style>
		tspan { white-space:pre }
		.shp0 { fill: #ffffff;stroke: #000000;stroke-width: 7 } 
	</style>
	<g id="Layer">
		<path id="svg_1" class="shp0" d="M0 45C0 20.15 20.15 0 45 0L155 0C179.85 0 200 20.15 200 45L200 50C200 74.85 179.85 95 155 95L45 95C20.15 95 0 74.85 0 50L0 45Z" />
		<path id="&lt;&lt;VP&gt;&gt;  " fill="#000000" aria-label="&lt;&lt;ABS&gt;&gt;"  d="M29.36 35.66L29.36 38.57L11.62 45.05L29.36 51.49L29.36 54.39L7.45 46.45L7.45 43.61L29.36 35.66ZM58.68 35.66L58.68 38.57L40.94 45.05L58.68 51.49L58.68 54.39L36.77 46.45L36.77 43.61L58.68 35.66ZM74.08 34.62L69.4 46.75L78.76 46.75L74.08 34.62ZM69.36 56L62.18 56L62.18 54.19L64.42 54.19L73.52 30.48L76.39 30.48L85.5 54.19L88.01 54.19L88.01 56L78.73 56L78.73 54.19L81.56 54.19L79.43 48.58L68.7 48.58L66.56 54.19L69.36 54.19L69.36 56ZM96.31 43.08L96.31 54.19L101.42 54.19Q104.5 54.19 105.92 52.86Q107.34 51.52 107.34 48.62Q107.34 45.73 105.92 44.41Q104.52 43.08 101.42 43.08L96.31 43.08ZM96.31 32.31L96.31 41.27L100.65 41.27Q103.46 41.27 104.74 40.19Q106.04 39.12 106.04 36.79Q106.04 34.45 104.74 33.39Q103.46 32.31 100.65 32.31L96.31 32.31ZM101.39 56L89.6 56L89.6 54.19L92.84 54.19L92.84 32.31L89.6 32.31L89.6 30.48L102.19 30.48Q106.05 30.48 108 32.07Q109.97 33.65 109.97 36.79Q109.97 39.06 108.6 40.41Q107.25 41.76 104.64 42.07Q107.88 42.48 109.56 44.16Q111.25 45.81 111.25 48.62Q111.25 52.41 108.86 54.21Q106.46 56 101.39 56ZM116.63 54.77L116.63 48.96L118.6 48.98Q118.68 51.88 120.27 53.28Q121.88 54.67 125.14 54.67Q128.19 54.67 129.78 53.47Q131.38 52.26 131.38 49.95Q131.38 48.1 130.41 47.11Q129.45 46.12 126.34 45.18L122.97 44.17Q119.32 43.06 117.81 41.41Q116.33 39.75 116.33 36.86Q116.33 33.61 118.63 31.82Q120.94 30.02 125.11 30.02Q126.89 30.02 129.01 30.42Q131.13 30.79 133.52 31.53L133.52 36.96L131.59 36.96Q131.3 34.26 129.78 33.07Q128.27 31.85 125.18 31.85Q122.48 31.85 121.06 32.96Q119.66 34.06 119.66 36.16Q119.66 37.99 120.72 39.03Q121.78 40.07 125.21 41.1L128.37 42.04Q131.84 43.08 133.31 44.7Q134.8 46.31 134.8 49.03Q134.8 52.74 132.42 54.62Q130.05 56.5 125.35 56.5Q123.25 56.5 121.06 56.07Q118.89 55.64 116.63 54.77ZM158.81 45.05L141.07 38.57L141.07 35.66L162.98 43.61L162.98 46.45L141.07 54.39L141.07 51.49L158.81 45.05ZM188.14 45.05L170.4 38.57L170.4 35.66L192.31 43.61L192.31 46.45L170.4 54.39L170.4 51.49L188.14 45.05Z" />
	</g>
</svg>