<svg version="1.2" baseProfile="tiny-ps" xmlns="http://www.w3.org/2000/svg" viewBox="0 0 200 95" width="200" height="95">
	<title>icono_variant-svg</title>
	<style>
		tspan { white-space:pre }
		.shp0 { fill: #ffffff;stroke: #000000;stroke-width: 7 } 
	</style>
	<g id="Layer">
		<path id="svg_1" class="shp0" d="M0 45C0 20.15 20.15 0 45 0L155 0C179.85 0 200 20.15 200 45L200 50C200 74.85 179.85 95 155 95L45 95C20.15 95 0 74.85 0 50L0 45Z" />
		<path id="&lt;&lt;VP&gt;&gt;  " fill="#000000" aria-label="&lt;&lt;VP&gt;&gt;
"  d="M42.43 35.66L42.43 38.57L24.69 45.05L42.43 51.49L42.43 54.39L20.52 46.45L20.52 43.61L42.43 35.66ZM71.76 35.66L71.76 38.57L54.02 45.05L71.76 51.49L71.76 54.39L49.85 46.45L49.85 43.61L71.76 35.66ZM84.42 32.31L81.58 32.31L89.12 51.9L96.64 32.31L93.77 32.31L93.77 30.48L101.25 30.48L101.25 32.31L98.77 32.31L89.67 56L86.73 56L77.67 32.31L75.12 32.31L75.12 30.48L84.42 30.48L84.42 32.31ZM109.39 32.31L109.39 43.01L113.9 43.01Q116.45 43.01 117.78 41.64Q119.11 40.26 119.11 37.66Q119.11 35.05 117.78 33.68Q116.45 32.31 113.9 32.31L109.39 32.31ZM113.33 56L102.67 56L102.67 54.19L105.92 54.19L105.92 32.31L102.67 32.31L102.67 30.48L114.74 30.48Q118.56 30.48 120.8 32.43Q123.04 34.36 123.04 37.66Q123.04 40.94 120.8 42.89Q118.56 44.84 114.74 44.84L109.39 44.84L109.39 54.19L113.33 54.19L113.33 56ZM145.74 45.05L128 38.57L128 35.66L149.91 43.61L149.91 46.45L128 54.39L128 51.49L145.74 45.05ZM175.06 45.05L157.32 38.57L157.32 35.66L179.23 43.61L179.23 46.45L157.32 54.39L157.32 51.49L175.06 45.05Z" />
	</g>
</svg>