<svg version="1.2" baseProfile="tiny-ps" xmlns="http://www.w3.org/2000/svg" viewBox="0 0 200 95" width="200" height="95">
	<title>icono_variant-svg</title>
	<style>
		tspan { white-space:pre }
		.shp0 { fill: #ffffff;stroke: #000000;stroke-width: 7 } 
	</style>
	<g id="Layer">
		<path id="svg_1" class="shp0" d="M0 45C0 20.15 20.15 0 45 0L155 0C179.85 0 200 20.15 200 45L200 50C200 74.85 179.85 95 155 95L45 95C20.15 95 0 74.85 0 50L0 45Z" />
		<path id="&lt;&lt;VP&gt;&gt; + " fill="#000000" aria-label="&lt;&lt;Opt&gt;&gt;
+"  d="M34.26 26.66L34.26 29.57L16.52 36.05L34.26 42.49L34.26 45.39L12.35 37.45L12.35 34.61L34.26 26.66ZM63.59 26.66L63.59 29.57L45.85 36.05L63.59 42.49L63.59 45.39L41.68 37.45L41.68 34.61L63.59 26.66ZM81.65 45.67Q85.84 45.67 87.97 42.8Q90.11 39.91 90.11 34.27Q90.11 28.61 87.97 25.74Q85.84 22.85 81.65 22.85Q77.45 22.85 75.31 25.74Q73.17 28.61 73.17 34.27Q73.17 39.91 75.31 42.8Q77.45 45.67 81.65 45.67ZM81.65 47.5Q79.05 47.5 76.87 46.64Q74.69 45.79 73.04 44.13Q71.12 42.21 70.18 39.79Q69.26 37.36 69.26 34.27Q69.26 31.17 70.18 28.75Q71.12 26.3 73.04 24.39Q74.71 22.72 76.87 21.88Q79.02 21.02 81.65 21.02Q87.2 21.02 90.62 24.66Q94.04 28.3 94.04 34.27Q94.04 37.33 93.1 39.79Q92.16 42.23 90.25 44.13Q88.57 45.8 86.42 46.66Q84.27 47.5 81.65 47.5ZM103.17 37.02L103.17 38.81Q103.17 42.1 104.41 43.82Q105.68 45.53 108.07 45.53Q110.48 45.53 111.71 43.6Q112.96 41.67 112.96 37.91Q112.96 34.13 111.71 32.22Q110.48 30.3 108.07 30.3Q105.68 30.3 104.41 32.03Q103.17 33.76 103.17 37.02ZM100.02 52.45L100.02 30.66L97 30.66L97 28.83L103.17 28.83L103.17 31.67Q104.09 29.96 105.51 29.16Q106.94 28.34 109.05 28.34Q112.39 28.34 114.51 30.99Q116.63 33.64 116.63 37.91Q116.63 42.18 114.51 44.85Q112.39 47.5 109.05 47.5Q106.94 47.5 105.51 46.69Q104.09 45.87 103.17 44.16L103.17 52.45L106.14 52.45L106.14 54.28L97 54.28L97 52.45L100.02 52.45ZM122.17 42.2L122.17 30.66L119.4 30.66L119.4 28.83L122.17 28.83L122.17 23.19L125.33 23.19L125.33 28.83L131.24 28.83L131.24 30.66L125.33 30.66L125.33 42.2Q125.33 44.5 125.78 45.15Q126.22 45.8 127.42 45.8Q128.65 45.8 129.21 45.09Q129.78 44.35 129.81 42.73L132.18 42.73Q132.05 45.21 130.83 46.35Q129.62 47.5 127.14 47.5Q124.43 47.5 123.3 46.3Q122.17 45.09 122.17 42.2ZM153.91 36.05L136.17 29.57L136.17 26.66L158.08 34.61L158.08 37.45L136.17 45.39L136.17 42.49L153.91 36.05ZM183.23 36.05L165.49 29.57L165.49 26.66L187.4 34.61L187.4 37.45L165.49 45.39L165.49 42.49L183.23 36.05ZM98.65 56.06L101.39 56.06L101.39 65.64L110.98 65.64L110.98 68.41L101.39 68.41L101.39 78L98.65 78L98.65 68.41L89.07 68.41L89.07 65.64L98.65 65.64L98.65 56.06Z" />
	</g>
</svg>