<svg version="1.2" baseProfile="tiny-ps" xmlns="http://www.w3.org/2000/svg" viewBox="0 0 200 95" width="200" height="95">
	<title>icono_variant-svg</title>
	<style>
		tspan { white-space:pre }
		.shp0 { fill: #ffffff;stroke: #000000;stroke-width: 7 } 
	</style>
	<g id="Layer">
		<path id="svg_1" class="shp0" d="M0 45C0 20.15 20.15 0 45 0L155 0C179.85 0 200 20.15 200 45L200 50C200 74.85 179.85 95 155 95L45 95C20.15 95 0 74.85 0 50L0 45Z" />
		<path id="&lt;&lt;ABS&gt;&gt; " fill="#000000" aria-label="&lt;&lt;Opt&gt;&gt;"  d="M34.26 35.66L34.26 38.57L16.52 45.05L34.26 51.49L34.26 54.39L12.35 46.45L12.35 43.61L34.26 35.66ZM63.59 35.66L63.59 38.57L45.85 45.05L63.59 51.49L63.59 54.39L41.68 46.45L41.68 43.61L63.59 35.66ZM81.65 54.67Q85.84 54.67 87.97 51.8Q90.11 48.91 90.11 43.27Q90.11 37.61 87.97 34.74Q85.84 31.85 81.65 31.85Q77.45 31.85 75.31 34.74Q73.17 37.61 73.17 43.27Q73.17 48.91 75.31 51.8Q77.45 54.67 81.65 54.67ZM81.65 56.5Q79.05 56.5 76.87 55.64Q74.69 54.79 73.04 53.13Q71.12 51.21 70.18 48.79Q69.26 46.36 69.26 43.27Q69.26 40.17 70.18 37.75Q71.12 35.3 73.04 33.39Q74.71 31.72 76.87 30.88Q79.02 30.02 81.65 30.02Q87.2 30.02 90.62 33.66Q94.04 37.3 94.04 43.27Q94.04 46.33 93.1 48.79Q92.16 51.23 90.25 53.13Q88.57 54.8 86.42 55.66Q84.27 56.5 81.65 56.5ZM103.17 46.02L103.17 47.81Q103.17 51.1 104.41 52.82Q105.68 54.53 108.07 54.53Q110.48 54.53 111.71 52.6Q112.96 50.67 112.96 46.91Q112.96 43.13 111.71 41.22Q110.48 39.3 108.07 39.3Q105.68 39.3 104.41 41.03Q103.17 42.76 103.17 46.02ZM100.02 61.45L100.02 39.66L97 39.66L97 37.83L103.17 37.83L103.17 40.67Q104.09 38.96 105.51 38.16Q106.94 37.34 109.05 37.34Q112.39 37.34 114.51 39.99Q116.63 42.64 116.63 46.91Q116.63 51.18 114.51 53.85Q112.39 56.5 109.05 56.5Q106.94 56.5 105.51 55.69Q104.09 54.87 103.17 53.16L103.17 61.45L106.14 61.45L106.14 63.28L97 63.28L97 61.45L100.02 61.45ZM122.17 51.2L122.17 39.66L119.4 39.66L119.4 37.83L122.17 37.83L122.17 32.19L125.33 32.19L125.33 37.83L131.24 37.83L131.24 39.66L125.33 39.66L125.33 51.2Q125.33 53.5 125.78 54.15Q126.22 54.8 127.42 54.8Q128.65 54.8 129.21 54.09Q129.78 53.35 129.81 51.73L132.18 51.73Q132.05 54.21 130.83 55.35Q129.62 56.5 127.14 56.5Q124.43 56.5 123.3 55.3Q122.17 54.09 122.17 51.2ZM153.91 45.05L136.17 38.57L136.17 35.66L158.08 43.61L158.08 46.45L136.17 54.39L136.17 51.49L153.91 45.05ZM183.23 45.05L165.49 38.57L165.49 35.66L187.4 43.61L187.4 46.45L165.49 54.39L165.49 51.49L183.23 45.05Z" />
	</g>
</svg>