<svg version="1.2" baseProfile="tiny-ps" xmlns="http://www.w3.org/2000/svg" viewBox="0 0 200 95" width="200" height="95">
	<title>icono_variant-svg</title>
	<style>
		tspan { white-space:pre }
		.shp0 { fill: #ffffff;stroke: #000000;stroke-width: 7 } 
	</style>
	<g id="Layer">
		<path id="svg_1" class="shp0" d="M0 45C0 20.15 20.15 0 45 0L155 0C179.85 0 200 20.15 200 45L200 50C200 74.85 179.85 95 155 95L45 95C20.15 95 0 74.85 0 50L0 45Z" />
		<path id="&lt;&lt;VP&gt;&gt; + " fill="#000000" aria-label="&lt;&lt;null&gt;&gt;
+"  d="M33.11 26.66L33.11 29.57L15.37 36.05L33.11 42.49L33.11 45.39L11.2 37.45L11.2 34.61L33.11 26.66ZM62.43 26.66L62.43 29.57L44.69 36.05L62.43 42.49L62.43 45.39L40.52 37.45L40.52 34.61L62.43 26.66ZM76.29 47L67.58 47L67.58 45.19L70.41 45.19L70.41 30.66L67.41 30.66L67.41 28.83L73.56 28.83L73.56 32.06Q74.43 30.22 75.81 29.28Q77.22 28.34 79.06 28.34Q82.07 28.34 83.49 30.06Q84.91 31.79 84.91 35.45L84.91 45.19L87.71 45.19L87.71 47L79.03 47L79.03 45.19L81.74 45.19L81.74 36.44Q81.74 33.11 80.92 31.88Q80.1 30.63 78.04 30.63Q75.85 30.63 74.7 32.23Q73.56 33.82 73.56 36.88L73.56 45.19L76.29 45.19L76.29 47ZM101.07 30.66L101.07 28.83L106.95 28.83L106.95 45.19L109.93 45.19L109.93 47L103.81 47L103.81 43.79Q102.94 45.6 101.55 46.56Q100.17 47.5 98.34 47.5Q95.31 47.5 93.88 45.79Q92.46 44.06 92.46 40.39L92.46 30.66L89.62 30.66L89.62 28.83L95.62 28.83L95.62 39.41Q95.62 42.73 96.42 43.96Q97.24 45.19 99.33 45.19Q101.52 45.19 102.66 43.58Q103.81 41.98 103.81 38.92L103.81 30.66L101.07 30.66ZM118.4 20.41L118.4 45.19L121.38 45.19L121.38 47L112.23 47L112.23 45.19L115.26 45.19L115.26 22.22L112.23 22.22L112.23 20.41L118.4 20.41ZM129.6 20.41L129.6 45.19L132.57 45.19L132.57 47L123.43 47L123.43 45.19L126.45 45.19L126.45 22.22L123.43 22.22L123.43 20.41L129.6 20.41ZM155.06 36.05L137.32 29.57L137.32 26.66L159.23 34.61L159.23 37.45L137.32 45.39L137.32 42.49L155.06 36.05ZM184.39 36.05L166.65 29.57L166.65 26.66L188.56 34.61L188.56 37.45L166.65 45.39L166.65 42.49L184.39 36.05ZM98.65 56.06L101.39 56.06L101.39 65.64L110.98 65.64L110.98 68.41L101.39 68.41L101.39 78L98.65 78L98.65 68.41L89.07 68.41L89.07 65.64L98.65 65.64L98.65 56.06Z" />
	</g>
</svg>