<svg version="1.2" baseProfile="tiny-ps" xmlns="http://www.w3.org/2000/svg" viewBox="0 0 200 95" width="200" height="95">
	<title>icono_variant-svg</title>
	<style>
		tspan { white-space:pre }
		.shp0 { fill: #ffffff;stroke: #000000;stroke-width: 7 } 
	</style>
	<g id="Layer">
		<path id="svg_1" class="shp0" d="M0 45C0 20.15 20.15 0 45 0L155 0C179.85 0 200 20.15 200 45L200 50C200 74.85 179.85 95 155 95L45 95C20.15 95 0 74.85 0 50L0 45Z" />
		<path id="Text layer 3" fill="#000000" aria-label="&lt;&lt;Def&gt;&gt;
+"  d="M35.98 26.66L35.98 29.57L18.24 36.05L35.98 42.49L35.98 45.39L14.07 37.45L14.07 34.61L35.98 26.66ZM65.3 26.66L65.3 29.57L47.56 36.05L65.3 42.49L65.3 45.39L43.39 37.45L43.39 34.61L65.3 26.66ZM77.66 23.31L77.66 45.19L80.84 45.19Q85.81 45.19 88.46 42.35Q91.13 39.51 91.13 34.22Q91.13 28.92 88.48 26.12Q85.83 23.31 80.84 23.31L77.66 23.31ZM81.09 47L70.94 47L70.94 45.19L74.19 45.19L74.19 23.31L70.94 23.31L70.94 21.48L81.09 21.48Q87.69 21.48 91.37 24.85Q95.06 28.22 95.06 34.22Q95.06 40.23 91.37 43.62Q87.67 47 81.09 47ZM116.04 38.25L102.49 38.25L102.49 38.39Q102.49 42.06 103.88 43.94Q105.26 45.8 107.96 45.8Q110.03 45.8 111.34 44.73Q112.68 43.63 113.21 41.5L115.74 41.5Q114.98 44.49 112.95 45.99Q110.93 47.5 107.64 47.5Q103.65 47.5 101.23 44.88Q98.82 42.25 98.82 37.91Q98.82 33.6 101.19 30.97Q103.57 28.34 107.43 28.34Q111.55 28.34 113.75 30.88Q115.96 33.41 116.04 38.25ZM102.49 36.44L112.34 36.44Q112.23 33.26 110.98 31.65Q109.75 30.03 107.43 30.03Q105.26 30.03 104.01 31.65Q102.76 33.28 102.49 36.44ZM132.84 21.25L132.84 24.7L131.19 24.7Q131.17 23.42 130.45 22.75Q129.75 22.08 128.4 22.08Q126.64 22.08 125.92 23.06Q125.2 24.01 125.2 26.49L125.2 28.83L130.28 28.83L130.28 30.66L125.2 30.66L125.2 45.19L129.24 45.19L129.24 47L119.05 47L119.05 45.19L122.06 45.19L122.06 30.66L119.05 30.66L119.05 28.83L122.06 28.83L122.06 26.56Q122.06 23.52 123.63 21.96Q125.22 20.41 128.28 20.41Q129.42 20.41 130.57 20.61Q131.71 20.82 132.84 21.25ZM152.19 36.05L134.45 29.57L134.45 26.66L156.36 34.61L156.36 37.45L134.45 45.39L134.45 42.49L152.19 36.05ZM181.51 36.05L163.78 29.57L163.78 26.66L185.68 34.61L185.68 37.45L163.78 45.39L163.78 42.49L181.51 36.05ZM98.65 56.06L101.39 56.06L101.39 65.64L110.98 65.64L110.98 68.41L101.39 68.41L101.39 78L98.65 78L98.65 68.41L89.07 68.41L89.07 65.64L98.65 65.64L98.65 56.06Z" />
	</g>
</svg>