<svg version="1.2" baseProfile="tiny-ps" xmlns="http://www.w3.org/2000/svg" viewBox="0 0 200 95" width="200" height="95">
	<title>icono_variant-svg</title>
	<style>
		tspan { white-space:pre }
		.shp0 { fill: #ffffff;stroke: #000000;stroke-width: 7 } 
	</style>
	<g id="Layer">
		<path id="svg_1" class="shp0" d="M0 45C0 20.15 20.15 0 45 0L155 0C179.85 0 200 20.15 200 45L200 50C200 74.85 179.85 95 155 95L45 95C20.15 95 0 74.85 0 50L0 45Z" />
		<path id="&lt;&lt;VP&gt;&gt; + " fill="#000000" aria-label="&lt;&lt;ABS&gt;&gt;
+"  d="M29.36 26.66L29.36 29.57L11.62 36.05L29.36 42.49L29.36 45.39L7.45 37.45L7.45 34.61L29.36 26.66ZM58.68 26.66L58.68 29.57L40.94 36.05L58.68 42.49L58.68 45.39L36.77 37.45L36.77 34.61L58.68 26.66ZM74.08 25.62L69.4 37.75L78.76 37.75L74.08 25.62ZM69.36 47L62.18 47L62.18 45.19L64.42 45.19L73.52 21.48L76.39 21.48L85.5 45.19L88.01 45.19L88.01 47L78.73 47L78.73 45.19L81.56 45.19L79.43 39.58L68.7 39.58L66.56 45.19L69.36 45.19L69.36 47ZM96.31 34.08L96.31 45.19L101.42 45.19Q104.5 45.19 105.92 43.86Q107.34 42.52 107.34 39.62Q107.34 36.73 105.92 35.41Q104.52 34.08 101.42 34.08L96.31 34.08ZM96.31 23.31L96.31 32.27L100.65 32.27Q103.46 32.27 104.74 31.19Q106.04 30.12 106.04 27.79Q106.04 25.45 104.74 24.39Q103.46 23.31 100.65 23.31L96.31 23.31ZM101.39 47L89.6 47L89.6 45.19L92.84 45.19L92.84 23.31L89.6 23.31L89.6 21.48L102.19 21.48Q106.05 21.48 108 23.07Q109.97 24.65 109.97 27.79Q109.97 30.06 108.6 31.41Q107.25 32.76 104.64 33.07Q107.88 33.48 109.56 35.16Q111.25 36.81 111.25 39.62Q111.25 43.41 108.86 45.21Q106.46 47 101.39 47ZM116.63 45.77L116.63 39.96L118.6 39.98Q118.68 42.88 120.27 44.28Q121.88 45.67 125.14 45.67Q128.19 45.67 129.78 44.47Q131.38 43.26 131.38 40.95Q131.38 39.1 130.41 38.11Q129.45 37.12 126.34 36.18L122.97 35.17Q119.32 34.06 117.81 32.41Q116.33 30.75 116.33 27.86Q116.33 24.61 118.63 22.82Q120.94 21.02 125.11 21.02Q126.89 21.02 129.01 21.42Q131.13 21.79 133.52 22.53L133.52 27.96L131.59 27.96Q131.3 25.26 129.78 24.07Q128.27 22.85 125.18 22.85Q122.48 22.85 121.06 23.96Q119.66 25.06 119.66 27.16Q119.66 28.99 120.72 30.03Q121.78 31.07 125.21 32.1L128.37 33.04Q131.84 34.08 133.31 35.7Q134.8 37.31 134.8 40.03Q134.8 43.74 132.42 45.62Q130.05 47.5 125.35 47.5Q123.25 47.5 121.06 47.07Q118.89 46.64 116.63 45.77ZM158.81 36.05L141.07 29.57L141.07 26.66L162.98 34.61L162.98 37.45L141.07 45.39L141.07 42.49L158.81 36.05ZM188.14 36.05L170.4 29.57L170.4 26.66L192.31 34.61L192.31 37.45L170.4 45.39L170.4 42.49L188.14 36.05ZM98.65 56.06L101.39 56.06L101.39 65.64L110.98 65.64L110.98 68.41L101.39 68.41L101.39 78L98.65 78L98.65 68.41L89.07 68.41L89.07 65.64L98.65 65.64L98.65 56.06Z" />
	</g>
</svg>