<svg version="1.2" baseProfile="tiny-ps" xmlns="http://www.w3.org/2000/svg" viewBox="0 0 200 95" width="200" height="95">
	<title>icono_variant-svg</title>
	<style>
		tspan { white-space:pre }
		.shp0 { fill: #ffffff;stroke: #000000;stroke-width: 7 } 
	</style>
	<g id="Layer">
		<path id="svg_1" class="shp0" d="M0 45C0 20.15 20.15 0 45 0L155 0C179.85 0 200 20.15 200 45L200 50C200 74.85 179.85 95 155 95L45 95C20.15 95 0 74.85 0 50L0 45Z" />
		<path id="&lt;&lt;ABS&gt;&gt; " fill="#000000" aria-label="&lt;&lt;null&gt;&gt;"  d="M33.11 35.66L33.11 38.57L15.37 45.05L33.11 51.49L33.11 54.39L11.2 46.45L11.2 43.61L33.11 35.66ZM62.43 35.66L62.43 38.57L44.69 45.05L62.43 51.49L62.43 54.39L40.52 46.45L40.52 43.61L62.43 35.66ZM76.29 56L67.58 56L67.58 54.19L70.41 54.19L70.41 39.66L67.41 39.66L67.41 37.83L73.56 37.83L73.56 41.06Q74.43 39.22 75.81 38.28Q77.22 37.34 79.06 37.34Q82.07 37.34 83.49 39.06Q84.91 40.79 84.91 44.45L84.91 54.19L87.71 54.19L87.71 56L79.03 56L79.03 54.19L81.74 54.19L81.74 45.44Q81.74 42.11 80.92 40.88Q80.1 39.63 78.04 39.63Q75.85 39.63 74.7 41.23Q73.56 42.82 73.56 45.88L73.56 54.19L76.29 54.19L76.29 56ZM101.07 39.66L101.07 37.83L106.95 37.83L106.95 54.19L109.93 54.19L109.93 56L103.81 56L103.81 52.79Q102.94 54.6 101.55 55.56Q100.17 56.5 98.34 56.5Q95.31 56.5 93.88 54.79Q92.46 53.06 92.46 49.39L92.46 39.66L89.62 39.66L89.62 37.83L95.62 37.83L95.62 48.41Q95.62 51.73 96.42 52.96Q97.24 54.19 99.33 54.19Q101.52 54.19 102.66 52.58Q103.81 50.98 103.81 47.92L103.81 39.66L101.07 39.66ZM118.4 29.41L118.4 54.19L121.38 54.19L121.38 56L112.23 56L112.23 54.19L115.26 54.19L115.26 31.22L112.23 31.22L112.23 29.41L118.4 29.41ZM129.6 29.41L129.6 54.19L132.57 54.19L132.57 56L123.43 56L123.43 54.19L126.45 54.19L126.45 31.22L123.43 31.22L123.43 29.41L129.6 29.41ZM155.06 45.05L137.32 38.57L137.32 35.66L159.23 43.61L159.23 46.45L137.32 54.39L137.32 51.49L155.06 45.05ZM184.39 45.05L166.65 38.57L166.65 35.66L188.56 43.61L188.56 46.45L166.65 54.39L166.65 51.49L184.39 45.05Z" />
	</g>
</svg>