<svg version="1.2" baseProfile="tiny-ps" xmlns="http://www.w3.org/2000/svg" viewBox="0 0 200 95" width="200" height="95">
	<title>icono_variant-svg</title>
	<style>
		tspan { white-space:pre }
		.shp0 { fill: #ffffff;stroke: #000000;stroke-width: 7 } 
	</style>
	<g id="Layer">
		<path id="svg_1" class="shp0" d="M0 45C0 20.15 20.15 0 45 0L155 0C179.85 0 200 20.15 200 45L200 50C200 74.85 179.85 95 155 95L45 95C20.15 95 0 74.85 0 50L0 45Z" />
		<path id="Text layer 3" fill="#000000" aria-label="&lt;&lt;Var&gt;&gt;
+"  d="M37.01 26.66L37.01 29.57L19.27 36.05L37.01 42.49L37.01 45.39L15.1 37.45L15.1 34.61L37.01 26.66ZM66.34 26.66L66.34 29.57L48.6 36.05L66.34 42.49L66.34 45.39L44.43 37.45L44.43 34.61L66.34 26.66ZM79 23.31L76.16 23.31L83.7 42.9L91.22 23.31L88.35 23.31L88.35 21.48L95.83 21.48L95.83 23.31L93.36 23.31L84.25 47L81.31 47L72.25 23.31L69.7 23.31L69.7 21.48L79 21.48L79 23.31ZM106.04 41.29L106.04 37.45L101.99 37.45Q99.65 37.45 98.5 38.46Q97.36 39.46 97.36 41.55Q97.36 43.45 98.52 44.56Q99.68 45.67 101.66 45.67Q103.63 45.67 104.82 44.45Q106.04 43.24 106.04 41.29ZM109.18 35.65L109.18 45.19L111.98 45.19L111.98 47L106.04 47L106.04 45.03Q104.99 46.3 103.63 46.9Q102.26 47.5 100.43 47.5Q97.41 47.5 95.63 45.89Q93.85 44.28 93.85 41.55Q93.85 38.73 95.89 37.17Q97.92 35.62 101.63 35.62L106.04 35.62L106.04 34.37Q106.04 32.3 104.77 31.17Q103.53 30.03 101.25 30.03Q99.37 30.03 98.26 30.88Q97.15 31.74 96.88 33.41L95.25 33.41L95.25 29.74Q96.89 29.04 98.43 28.7Q99.99 28.34 101.46 28.34Q105.23 28.34 107.2 30.22Q109.18 32.08 109.18 35.65ZM129.71 28.8L129.71 33.35L127.9 33.35Q127.81 32 127.14 31.33Q126.48 30.66 125.2 30.66Q122.87 30.66 121.62 32.27Q120.39 33.88 120.39 36.88L120.39 45.19L124.03 45.19L124.03 47L114.41 47L114.41 45.19L117.25 45.19L117.25 30.63L114.24 30.63L114.24 28.83L120.39 28.83L120.39 32.06Q121.32 30.17 122.77 29.26Q124.22 28.34 126.31 28.34Q127.08 28.34 127.91 28.46Q128.77 28.58 129.71 28.8ZM151.15 36.05L133.42 29.57L133.42 26.66L155.32 34.61L155.32 37.45L133.42 45.39L133.42 42.49L151.15 36.05ZM180.48 36.05L162.74 29.57L162.74 26.66L184.65 34.61L184.65 37.45L162.74 45.39L162.74 42.49L180.48 36.05ZM98.65 56.06L101.39 56.06L101.39 65.64L110.98 65.64L110.98 68.41L101.39 68.41L101.39 78L98.65 78L98.65 68.41L89.07 68.41L89.07 65.64L98.65 65.64L98.65 56.06Z" />
	</g>
</svg>